<?xml version="1.0" standalone="no"?><!DOCTYPE svg PUBLIC "-//W3C//DTD SVG 1.1//EN" "http://www.w3.org/Graphics/SVG/1.1/DTD/svg11.dtd"><svg t="1748444077265" class="icon" viewBox="0 0 1024 1024" version="1.1" xmlns="http://www.w3.org/2000/svg" p-id="34337" xmlns:xlink="http://www.w3.org/1999/xlink" width="48" height="48"><path d="M512 1002.666667a490.666667 490.666667 0 1 1 490.666667-490.666667 490.666667 490.666667 0 0 1-490.666667 490.666667z m0-907.733334A417.066667 417.066667 0 1 0 929.066667 512 417.493333 417.493333 0 0 0 512 94.933333z" p-id="34338" fill="#ffffff"></path><path d="M512 610.133333a36.906667 36.906667 0 0 1-36.906667-36.693333V303.573333a36.906667 36.906667 0 1 1 73.6 0v269.866667A36.693333 36.693333 0 0 1 512 610.133333zM512 757.333333a50.56 50.56 0 1 1 50.56-50.56A50.773333 50.773333 0 0 1 512 757.333333z" p-id="34339" fill="#ffffff"></path></svg>